{"title":"Helix S01E12 HDTV x264 AAC [GWC].mp4","uid":9807979,"size":117562810,"categoryP":"video","categoryS":"tv_shows","magnet":"?xt=urn:btih:cae69c1d57decbfa8f2546d524607442275a2b50&amp;dn=Helix+S01E12+HDTV+x264+AAC+%5BGWC%5D.mp4&amp;tr=udp%3A%2F%2Ftracker.openbittorrent.com%3A80&amp;tr=udp%3A%2F%2Fopen.demonii.com%3A1337&amp;tr=udp%3A%2F%2Ftracker.coppersurfer.tk%3A6969&amp;tr=udp%3A%2F%2Fexodus.desync.com%3A6969","seeders":1,"leechers":0,"uploader":"canc232","files":1,"time":1395478292,"description":"Helix S01E12 HDTV x264 AAC [GWC]\n\n\nSTORYLINE :\nA team of scientists are thrust into a potentially life-or-death situation in this thriller, which begins with the group being deployed to the Arctic to secretly investigate what could be a disease outbreak.\n\n\nSCREENS : &lt;a href=&quot;\nhttp://i.imgur.com/t98VUy6.jpg&quot; rel=&quot;nofollow&quot; target=&quot;_NEW&quot;&gt;\nhttp://i.imgur.com/t98VUy6.jpg&lt;/a&gt; &lt;a href=&quot;\nhttp://i.imgur.com/EcoajAz.jpg&quot; rel=&quot;nofollow&quot; target=&quot;_NEW&quot;&gt;\nhttp://i.imgur.com/EcoajAz.jpg&lt;/a&gt; &lt;a href=&quot;\nhttp://i.imgur.com/PiQXk0P.jpg&quot; rel=&quot;nofollow&quot; target=&quot;_NEW&quot;&gt;\nhttp://i.imgur.com/PiQXk0P.jpg&lt;/a&gt;\n\n\nMEDIA INFO :\nGeneral  \nFormat : MPEG-4 \nFormat profile : Base Media \nFile size : 112 MiB \nDuration : 38mn 14s \nOverall bit rate mode : Variable \nOverall bit rate : 410 Kbps \n\nVideo \nFormat : AVC \nFormat profile : &lt;a class=&quot;__cf_email__&quot; href=&quot;/cdn-cgi/l/email-protection&quot; data-cfemail=&quot;3179585659717d021f01&quot;&gt;[email&amp;#160;protected]&lt;/a&gt;&lt;script cf-hash='f9e31' type=&quot;text/javascript&quot;&gt;\n/* &lt;![CDATA[ */!function(){try{var t=&quot;currentScript&quot;in document?document.currentScript:function(){for(var t=document.getElementsByTagName(&quot;script&quot;),e=t.length;e--;)if(t[e].getAttribute(&quot;cf-hash&quot;))return t[e]}();if(t&amp;&amp;t.previousSibling){var e,r,n,i,c=t.previousSibling,a=c.getAttribute(&quot;data-cfemail&quot;);if(a){for(e=&quot;&quot;,r=parseInt(a.substr(0,2),16),n=2;a.length-n;n+=2)i=parseInt(a.substr(n,2),16)^r,e+=String.fromCharCode(i);e=document.createTextNode(e),c.parentNode.replaceChild(e,c)}}}catch(u){}}();/* ]]&gt; */&lt;/script&gt; \nFormat settings, CABAC : Yes \nFormat settings, ReFrames : 4 frames \nDuration : 38mn 13s \nBit rate : 347 Kbps \nMaximum bit rate : 1 536 Kbps \nWidth : 720 pixels \nHeight : 404 pixels \nDisplay aspect ratio : 16:9 \nFrame rate : 23.976 fps \nStream size : 94.9 MiB (85%) \nTitle : Helix S01E12 HDTV x264 AAC [GWC] \nWriting library : x264 core\n\nAudio \nFormat : AAC \nFormat profile : HE-AAC / LC \nDuration : 38mn 14s \nBit rate mode : Variable \nChannel(s) : 2 channels \nSampling rate : 48.0 KHz / 24.0 KHz \nStream size : 16.4 MiB (15%) \nTitle : Helix S01E12 HDTV x264 AAC [GWC] \nLanguage : English \n\n","torrent":{"xt":"urn:btih:cae69c1d57decbfa8f2546d524607442275a2b50","amp;dn":"Helix+S01E12+HDTV+x264+AAC+%5BGWC%5D.mp4","amp;tr":["udp%3A%2F%2Ftracker.openbittorrent.com%3A80","udp%3A%2F%2Fopen.demonii.com%3A1337","udp%3A%2F%2Ftracker.coppersurfer.tk%3A6969","udp%3A%2F%2Fexodus.desync.com%3A6969"],"infoHash":"cae69c1d57decbfa8f2546d524607442275a2b50","infoHashBuffer":{"type":"Buffer","data":[202,230,156,29,87,222,203,250,143,37,70,213,36,96,116,66,39,90,43,80]},"announce":[],"urlList":[]}}